<svg id="Layer_1" data-name="Layer 1" xmlns="http://www.w3.org/2000/svg" viewBox="0 0 354.3 354.3"><defs><style>.cls-1{fill:#fff;stroke:#b12c2c;stroke-miterlimit:10;stroke-width:10px;}.cls-2{fill:#b12c2c;}.cls-3{fill:#b2312f;}.cls-4{fill:#b2302e;}.cls-5{fill:#b3332f;}.cls-6{fill:#b33330;}.cls-7{fill:#b2322f;}.cls-8{fill:#b33430;}.cls-9{fill:#b43832;}.cls-10{fill:#b43932;}.cls-11{fill:#fbf6f3;}</style></defs><circle class="cls-1" cx="177.15" cy="177.15" r="172.15"/><path class="cls-2" d="M386.74,338.65c-7.44-2.84-7.95-6.49-6.74-12.8.92-4.83-1.8-8.67-5.81-10.69-4.17-2.11-7.17.85-9.58,4.11-1,4.2,2,8.88-1.31,13.31-5.32-4.91-.91-9.11,0-13.37,0-6.26-3.25-10.57-8.4-13.57a11.42,11.42,0,0,1-5.2-5.17c-1.33-2.85-3.1-7-7-5.37-3.37,1.42-2.67,5.69-2.37,9a20.31,20.31,0,0,0,1.36,4.31,17.65,17.65,0,0,1,6,6.41c4.89,4.41,3.1,9.64,1.81,14.81-.42,1.68-1.29,2.82-3.19,1.93-1.6-.75-2.33-2.17-1.38-3.72,2.27-3.71,2.47-7.6,1.56-11.69l-4.92-5.86h0c-7-2.27-11.86,3.74-18.06,4.51-3.1,6.68-1.26,13.59,4.6,16.1,4.34,1.86,2.86,4.75.84,6.5-4.51,3.9-7.72,8.8-11.45,13.29-1.88,2.27-4.16,2.73-6.83,2.39-3.44-.43-6.58-.07-9.06,2.8-.84,1-1.69,3-3.51,1.22a2.82,2.82,0,0,1-.24-4.13c7.15-7.73,10.88-17.11,13.5-27.1.28-1.06,1.87-2.76,2.41-2.6,10.05,2.84,5.09-4.9,6-8.43-1.66-.77.2-5.95-4.68-3.06-8.5,5-15.57,10.91-17.92,21-.27,1.17-1.21,1.48-2.35,1-.61-13.4-2.62-15.27-12.62-10.79,1.34-4-5.14-9.91,3.95-11.17.38-.05.87-1.85.73-2.75a141.33,141.33,0,0,1-2.06-25.62c-4.56,3.6-2.52,8.58-5,10.51-7.94,6.19-7.5,15-8.45,23.45-.57,5.06-1.38,10.06-4.33,14.4-.72,3.63-1.59,7.19-4.29,10.13a11.93,11.93,0,0,1,2.36-10.49c.27-3.83,2.74-8.54-3-10.37-4.07-1.31-8.56-2.56-12.43.65s-5.31,7.21-3.7,12.29c.75,2.39.31,5.15,1.07,7.54,2.3,7.2-5,9.25-7.27,14-.51,1.05-1.68.3-2.37-.6-4-5.18-10.56-9-8.28-17.39,1.12-4.15,1.4-8.87-3.78-11.19s-7,2.5-10.12,4.74c-.26.19-.89-.12-1.77-.27.3-4.6-4.28-11-.12-13.44,7.94-4.64,4.37-8,.83-12.34-1.9-2.31-1.53-5.35-2.69-7.86-1.07-2.32.81-6.76-3-6.78-3.3,0-3.85,4.15-5.13,6.86s-.47,5.46.19,8.19c.51,2.15,1.71,4,.8,6.59-5.32,14.94-2.82,29.1,5.22,42.38,2.42,4,2,7.28.39,11.41-5.86,14.63-17.83,23.35-30.5,30.82-5.33,3.13-5.83,3.54-2.82,9.38,5.59,10.82,15.33,15.18,25,19.75,3.24,1.52,7.59-.4,8.17-5.47-2.44-2.24-4.78.69-7.28.17-.06-9.66,5.82-2.28,8.79-3.1.85-.55,2.89-2,2.5-.37-2,8.39,0,18.3-8.85,24.29-2.06,1.4-3.71,3.59-3,6.56,1.19,5.24,11.73,14.53,17.48,15.13,2.9.31,6.65,1.52,7.85-2.5,1-3.36,0-7.08-3.57-8.33-4.67-1.62-3.93-4.59-1.85-6.92,8.16-9.13,16.7-17.93,26.37-28.2,0,6.64,0,10.93,0,15.23,0,4.58-.28,9.15.93,13.69,2,7.66,4.6,15.51-4.34,21a3,3,0,0,0-1,4.08c.71,1.32,2,1.29,3.32,1.25,10.79-.39,14.47-4.14,14.24-14.83-.09-4.07-.41-8.14-.73-12.2a179.27,179.27,0,0,1,.89-39.09c11.93,9.46,12.24,10.18,8.06,23.33-1.15,3.62-3.08,7-4.36,10.57-1.13,3.19-1.9,6.65,1.5,9,2,1.42,4.36,3.59,6.85,2.63,3.74-1.45,3.34-5.35,3.49-8.6.22-4.64-.12-9.4,4.17-13,2.09,4.5,2.27,8.82,2.29,13.18,0,9.5,3.26,14.18,11.82,17.41,1.45.55,2.9,1.32,4.22,0s.57-2.85-.05-4.24c-2.77-6.15-3.53-12.68-4.27-19.32-.61-5.5-1.67-11.05-4.61-16.05-.93-1.58-4.82-3.8-.14-5.82,3.31-1.44,5.58-1,7.55,2.5,3.1,5.47,4.39,11.24,5.2,17.41,1.32,10,7.28,14.07,15.28,11.22.81-5.74-2.19-10.31-4.83-14.85-3.69-6.32-5.11-13.17-5.82-20.28-.31-3.1.49-5,4.08-4.5a12.56,12.56,0,0,0,7.3-1.25c4.94-2.24,7.32.05,7,5.27-.66,12.14-.83,24.31-5.82,35.72h0c-.28,6.52,1.76,12.58,3.66,18.67.59,1.93,1,4.56,3.47,4.38,3-.22,1.91-2.92,2-4.84.18-5.15,2.23-10,2.89-15,1-7.83,4.4-13.73,10.8-18.29,6.94-4.95,10.76-12.06,12.92-20.2a26.37,26.37,0,0,1,2.41-5.6c1.12-2.1,2.78-4,5.34-3.72,3.41.37,2.3,3.53,2.58,5.51,2.32,15.95.35,31-9.59,44.37-1.7,2.3-3.07,5.07.1,7.37,2.69,2,5.48,1.21,7.72-.76a77.32,77.32,0,0,0,5.62-6.21c5.38-5.94,5.51-13.86,7.25-20.85,2.35-.25,2.66,1.26,3.33,2.2a35,35,0,0,1,6.54,21.58c-.06,2.65.8,5.43,4,5.52,2.79.09,3.33-2.49,4.08-4.78a31,31,0,0,0-.47-21.74c-2.27-5.67-4.91-11.2-7.31-16.83-1.33-3.14-1.88-6.11.44-9.32,8.35-11.56,10.41-25.28,12.58-38.86C402.86,357.07,397,342.58,386.74,338.65ZM305,327.86c.25-.88,1.1-1.58,2-2.8.44,1.05,1,1.69.84,2.13-.28.87-.74,2-1.45,2.35C304.79,330.22,304.75,328.65,305,327.86Zm66.46-9.42a6.93,6.93,0,0,1,5.2,5.1c.66,2.13-1.1,3.3-3.14,3-2.8-.37-4.59-2-4.6-5A2.8,2.8,0,0,1,371.42,318.44Zm-14.83-4.8c2.64,2.89,2.11,5,.93,9.35C356.43,319,355.2,317.08,356.59,313.64Zm-7,26.87a52.94,52.94,0,0,0,5.11-9.9c1.43,4.28,1.68,8.28-.81,11.88-.9,1.3-1.57,3.71-3.88,2.13C348.59,343.65,348.75,341.87,349.61,340.51Zm-18.16-17.29c1.3-3,2.55-6.72,5.92-8.17,4,.94,5.19,3.71,5.43,6.9s-1.76,5.76-4.68,6.06C334.92,328.33,331.07,324.08,331.45,323.22Zm6.75,15.57c1.07-.51,3.26-1.08,3.38-.84,2.8,5.59,7.71,10.77,7.42,17-.2,4.44-3.82,8.74-8.46,11a8.06,8.06,0,0,1-2.61.41c-2.12-.31-3.92-.21-5.25-1.75C327.48,358.62,330.94,342.18,338.2,338.79Zm-35.43,26.6c.62-.12,1.48.91,2.13,1.35-.49,2.07-1.52,3-3.17,3a1.89,1.89,0,0,1-1.4-1.21A2.87,2.87,0,0,1,302.77,365.39Zm-14.36-37.63c3.47,4.74,2.61,8.84.61,12.77-.65,1.26-2.32,1-3-.44C284.06,335.6,286.06,332,288.41,327.76Zm-7.22,10.71c.5,0,1,1.51,1.3,2,.29,1.8-.11,3-1.64,2.86-.55,0-1.34-1.42-1.37-2.21C279.44,340,279.73,338.48,281.19,338.47Zm-10.91,1.12c1.75-6.73,3.71-13.41,5.92-21.29,4.49,9,.18,16.61-.4,24.25a1.68,1.68,0,0,1-2.83,1.17C271.7,342.71,269.75,341.63,270.28,339.59ZM249.45,328c.57-3.86,3.7-4.56,6.79-4.8,2.33-.18,4.73.3,5.09,3.33.16,1.27-.55,3.39-1.5,3-3.21-1.49-6.24-5.8-7.77.76C249.73,330,249.31,328.93,249.45,328Zm8.45,10.19c-.32,2.18-.58,4.33-2.86,4.24-3.31-.12-2.83-3.15-3-5.23s1-3.79,3.11-3.43C257.47,334.18,257.81,336.46,257.9,338.19ZM233.22,365.3a4.55,4.55,0,0,1,.85-4.95,1,1,0,0,1,1.71.38c.47,1.74.77,3.55-1.37,4.54h0c-.48,2-.32,4.52-3.82,4.76C230.62,367.81,231.24,366.23,233.22,365.3Zm-11.45-35.17c1.53-.55,3.34,0,3.57,1.79.66,5.19-4.81,4.15-7,8.05C216.9,334.22,218.09,331.45,221.77,330.13ZM224,341c1.09,4.72,1.29,8.55,5,12.07,3.15,3,.94,7.66-.93,11.29-.8,1.55-2.25,1-2.84-.31-1.88-4.3-6.07-6.82-8.41-10.37C211.76,346.09,220.36,344.69,224,341Zm4.65,32.27c-3.64,4.56-5.84,7.62-11,5.42C219.9,374.9,223.41,374.55,228.62,373.27ZM211,347.61c-3.39-3.66-3.23-8.37-4.53-12.49h0a9.46,9.46,0,0,1,.23-9.79h0c-.3-2.93-.7-5.88,1-8.91,1.31,3.19.37,6.14.33,9.05a45,45,0,0,0,4.06,12.14C213.78,340.93,214.42,344.25,211,347.61Zm6.11,13.87c6.76,6.85,6.54,7.38-6,13.6Zm-18,53c-2.17,2.22-5.14,2.57-6.76.61-2.25-2.71-5.11-3.89-7.86-5.64-4.88-3.1-3-8.25,5.12-13.71-1.45,7.47,8.39,8,8.24,14.9C197.83,411.35,201.65,411.9,199.11,414.49Zm-1.23-14.32c-2,.77-3.57-.84-3.26-3,.59-4.17,2.41-8.06,6.4-9.66,1.38-.56,4.27,1.14,4.86,4C204.09,395.17,201.83,398.61,197.88,400.17Zm12,46.44c0,.85,0,2.12-1.39,2a1.85,1.85,0,0,1-1.79-2.52,10.35,10.35,0,0,1,1.93-2.7C210.43,444.22,209.89,445.55,209.83,446.61Zm10.35-8.67c-2.05,5.64-5.44,10.91-4.07,17.34,2.19.71,5-.55,6.8,2.34-2.56,2.27-4.73.61-6.91-.52-2.14-.13-3.39-1.33-3.12-3.41.74-5.74,1.64-11.47,2.59-17.19.35-2.11,1.52-4.33,3.89-3.64C222.11,433.66,220.77,436.31,220.18,437.94Zm2-20.37c-1.17,3.44.08,7.74-3.45,10.31-.9.66-2.46-.1-2.29-1,.79-4.19.37-8.95,5.19-12.94C222,416.15,222.38,417,222.17,417.57Zm3.41,6.06c-.8-5.46,2-9.51,4.64-13.69C231.21,415.22,232.87,420.85,225.58,423.63ZM236,419.82c-2.05-3.37-1.16-6.73-.66-10.21,1-6.89-1.9-8.79-8.92-6.17-1.38,1.89-.13,5.08-3.33,6.68-1.58-3.58.78-5.77,1.95-8.23.07-.5.11-1,.22-1.5.9-3.82,3.84-10,.47-11-4.6-1.34-2.49,5.83-4.86,8.59s-3.89,5.8-7,10.65c-.1-6.56-4.37-10.66.57-15.19,1.9-1.74,1.06-3.81-1.38-4.71s-4-2.06-4.1-5c8,.77,16.29,3.11,22.85-4.74-1,4.73,1.75,8.86-.71,13.57-1.73,3.3,2.73,5.5,5.18,7.48C244.2,406.46,244.27,412.88,236,419.82Zm2.84-32.1a13.34,13.34,0,0,1-.26-3.69,134.22,134.22,0,0,1,4.47-16.68C246.29,374.82,244.18,381.48,238.86,387.72Zm11-23.07c.33-1.2,1.41-2.51.32-3.5-7.54-6.78.77-9.21,3.9-11.91,2.56-2.21,6.81-1.67,9.29,2.07,3.69,5.58,3.51,12.92-.68,15.88-3.52,2.48-7.27,4.63-11,6.95A9.57,9.57,0,0,1,249.91,364.65Zm6.61,93.69c-1.83-6.79-5.62-13.34-1.84-20.79A33,33,0,0,1,256.52,458.34Zm3.9-62.75c-6,1.78-3.13,6.8-3.08,10.13.14,8.8-.75,17.4-1.62,26l-2.44-.08c0-11.54-.18-23.09.1-34.63.1-4.3,4.8-2.54,7-4.17,2.77-2.22,5.16-3.9,6,1.7.45,3.13,1.83,6.12,3.07,10.08C264.25,403,263.41,398.18,260.42,395.59Zm10.13-41.11c1.94-.21,11.41,7.29,11,8.12-1.17,2.22-3.1,5.31-5.12,5-5.54-.86-4.39-7-6.76-10.54A1.84,1.84,0,0,1,270.55,354.48Zm12.24,37.78c-2.38-2.28-4.07-4.79-3.07-9.11C282.64,386.19,282.64,389.27,282.79,392.26Zm-8.54,37.25a.66.66,0,0,0,0,.14h0l-.11.08a11.9,11.9,0,0,1-1.27,7.76l-.32,4.42c.06,1.73,1.3,4.83-1.42,4.46-3.51-.49-1.71-3.69-1.22-5.91q.79-2.23,1.58-4.46c1.19-2,.52-4.72,2.65-6.27,0-.06,0-.12,0-.17l.12-.05a9.11,9.11,0,0,1,2.66-7.86C278.32,425.81,278,428.31,274.25,429.51Zm17,7.25c1.12,5.67,1.92,11.39,2.93,17.54-5-1.31-6.41-4.38-6.24-8.59a52.62,52.62,0,0,0-4.2-22.28L280.16,419a45,45,0,0,1-10-11.83c6.83,1.74,9.23,6,11.7,10.2a7.76,7.76,0,0,1,3.25,4.27C289.86,425.56,290.16,431.35,291.23,436.76Zm-1-30.42c-3.1-.74-2.9-3.63-3.92-5.65-1.17-1.41-3.34-3.36-1.46-4.66s2.25,1.66,3,3C289,401.3,291.8,403,290.24,406.34Zm13.13,10.82c-2.54-4.81-5.2-9.55-7.53-14.45-.8-1.7-1.53-4.2,1.05-5.17,2-.76,3.27,1.1,4.11,2.62C303.87,405.33,303.81,411.09,303.37,417.16Zm5,14.76c1.83,1.43,2.82,2.8,2.33,4.68-.09.34-1.63.76-1.84.53C307.61,435.78,307.34,434.15,308.37,431.92ZM306.88,400c-4.61-5.5-7.81-11.28-15-5.89-1.7,1.28-2.92-1.54-3.68-3A26.13,26.13,0,0,1,286,371.83c2.09-8.06,1.71-15.42-6.15-20.53a1.67,1.67,0,0,1-.58-2.54c1.41-2.31,4-1.9,6.07-2.73s2.92,0,3.39,1.73c1.29,4.59,3,9.14,3.49,13.82.27,2.63.23,4.86,2.23,6.81a4,4,0,0,1,.86,4.3c-.85,2.39-6.17,2.79-2.92,7.11,2.8,3.71,5.44,7.82,10.18,8.78C309.15,389.93,308.73,393.71,306.88,400Zm5.17-13.08c-2.55-4.58-9.53-1.36-12.11-7.17,7.25-3.05,11.07,2.3,15.57,5.63,1.61.08,2.49,1.78,1.76,2.33A3.7,3.7,0,0,1,312.05,386.92Zm8.06,8.88c-.29,2.43-2,5-4.49,5.34-2.35.36-3.27-1.86-3.09-4.11s1.12-3.81,3.7-3.71C317.58,394.14,320.4,393.4,320.11,395.8Zm-13.57-22.55c4.58-8,12.3-6.7,19.54-6.58,2.48,0,2.8,2.11,3.44,4.22a35.41,35.41,0,0,1,1.14,17.27c.66,4.71,0,9.2-2.77,15.58V392.8C324.74,386.25,322.06,383.79,306.54,373.25Zm24.65,62.89h0c-.19,2.74-.18,5.51-1.64,8,0,3.51-.86,6.72-3.39,11.09-2.21-6.84,1-11.45,1.88-16.31l1.59-7.57h0c.44-6.72-1.87-13.6,1.19-20.16,4.46-6.16,1.85-14,4.91-20.76,4.12,1.58,3.91,4.4,3.23,8-1.7,9-7.08,17-6.8,26.47C332.62,428.67,333,432.49,331.19,436.14Zm7-18.85c-2.13-.78-.85-2.26-.38-3.66,2-6.09,3.94-12.23,6.16-19.23,2.4,2.59,4.42,4.33,2.74,6.7-2.95,4.14-4.45,8.75-5.63,13.58C340.81,416,340.31,418.05,338.23,417.29Zm5.08,6.54c-.45-3.91.11-6.42,3.1-7.73.28-.13,1.44.76,1.48,1.23C348.1,420.25,346,421.75,343.31,423.83Zm7.2-11.72c-1.58.18-2-1.24-1.86-2.62s.16-2.93,1.69-3c1.23,0,2.15,1.22,2.16,2.7S351.81,412,350.51,412.11Zm3.91-12.18c-1.81-10.25-13.6-12.17-16.67-21.15-.87-2.56-2.25-5.63,1.16-6.21,2.94-.5,7.92-3.11,9.28.89C351.07,382,356.61,389.87,354.42,399.93Zm9-51.56c1.89,8.7-3.65,15.53-5.21,23.32-.22,1.09-2.21,1.83-3.4,2.74-3.32-4.41-3.53-8.46-.66-13,2.07-3.23,2.57-6.78,2-10.92-.63-4.86,2.25-9.3,6.31-11.82,2.91-1.81,5.65-3.2,6.75-6.66.82-2.58,2.75-2.29,4.06-.79,2,2.34.26,4.88-.62,7.11s-2.26,6.2-4.66,5C360.05,339.57,363,346.32,363.45,348.37Zm10,81.21c-.85,4.71-1.17,9.6-2.73,14.06-1.35,3.89-3.52,7.83-9.13,9.39,2.35-8.38,9.35-14.24,9.24-22.84-.12-8.3,0-16.61,0-25.07,2.7.11,2.68,1.65,2.76,3.11C375.81,415.35,377.35,422.48,373.48,429.58ZM390,393.87c-.7,3.39-1.8,6.84-4.45,9.58-.57-.75-.85-1.16-1.18-1.52-2-2.18-.41-8.06-3.53-7.23-4.05,1.07-.4,5.65-.46,8.68-.06,2.48.81,5,1.27,7.48h0l10.56,28c2.54,3.15,1.53,6.64,1.37,11.2-4-3.91-3.18-7.18-1.4-10.56-1.25,1-2.25.91-3-.63-3.44-7.52-9.31-14.09-9.07-23.06-1.91-9-3.86-18-12.85-23.18-1.48-.86-3.26-2.55-2.13-4.4,6.68-11,2.61-23.07,3.9-34.58.22-1.94-.82-5.72,2.49-4.78,1.62.46,6.77,2.09,4.17,6.86a40.56,40.56,0,0,0-2.82,7.07c-1.76,5.6,0,9.47,5.84,11.15,3.05.87,7.46-.26,8.66,3.56C389.06,382.74,391.17,388.19,390,393.87Zm1.65-21.48A95.52,95.52,0,0,1,379.22,369c-3.21-1.17-2.47-3.91-1.56-6.45,1.63-4.49,3.2-9,5.49-15.5,4,8.43,7.3,15.39,10.42,22.45C394.15,370.81,394,372.91,391.63,372.39Zm5-8.22c-4.17-4.06-4.63-9.08-6.89-13.12-.65-1.19-1.07-2.5.34-3.27s2.4.37,3.12,1.36C396.28,353.38,397.31,358.11,396.66,364.17Z" transform="translate(-117.95 -164.2)"/><path class="cls-3" d="M272.58,214.48c0,15.33,0,15.32,15.56,15.44,2.55,0,5.1.1,7.64.31a4.86,4.86,0,0,0,5-2.3c4.14-5.69,11.78-4.61,14.83,2.1,1.23,2.71,3.16,3.49,5.41,3,3.59-.72,1.08-3.27.72-4.75-1.84-7.68-4.08-15.27-5.93-23-.64-2.64-1.81-3.86-4.55-4.14-2.51-.26-3.74.88-4.77,2.85-1.9,3.62-4.52,7-5.7,10.81-2.8,9-8.95,10.66-17.33,9.71-3.59-.41-4.89-1.27-4.72-4.92.26-5.35,0-10.72.08-16.08,0-2.28-.26-3.94-3.24-3.91s-3.05,1.94-3,4.07C272.6,207.33,272.58,210.9,272.58,214.48Zm37.93-5.57c1.11,4.78,3.45,7.58,1.32,10.39-.57.76-4.39.48-4.81-.32C305.15,215.36,308.69,213.29,310.51,208.91Z" transform="translate(-117.95 -164.2)"/><path class="cls-4" d="M260.72,273.49c3.65-.42,7.1-2.1,10.88.46,2.7,1.83,3.87-2.68,3.58-2.83-5.86-3.16-1.54-7.84-2-11.72.25-10-4.9-16.57-13.44-17-10.13-.53-16.5,5.64-16.17,15.66C244,268.87,250.35,274.68,260.72,273.49Zm-2-25.61c6.5.41,7.92,5.51,8,11,0,2.92.46,6.81-4.66,4.85-4.89-3.1-.82,8.92-7.16,4-3.71-2.88-4.73-6.56-4.81-10.62C250,251.47,252.73,247.5,258.71,247.88Z" transform="translate(-117.95 -164.2)"/><path class="cls-3" d="M318.36,248.85c-1.28,6.51-2.15,13.1-3.22,19.65-.32,2-1.16,4.08,1.92,4.77,3.7.83,3.34-2.07,3.89-4.11,1.08-4,.47-8.37,2.94-13.09,2.68,6.36,5,11.72,7.21,17.12,1.07,2.59,3.18,3.17,5.6,3.05,2.71-.12,2.06-2.56,2.34-4.08,1.33-7.28,2.45-14.59,3.71-21.89.41-2.36,0-4-2.73-4.36-2.62-.35-2.85,1.37-3.16,3.23-.73,4.41-1.53,8.82-2.3,13.24l-1.4.19c-2-4.8-4.07-9.56-6-14.4-1.09-2.77-2.41-5.24-5.8-5.14C317.22,243.14,318.77,246.76,318.36,248.85Z" transform="translate(-117.95 -164.2)"/><path class="cls-5" d="M196.49,287.17c1.5,3.48,4.61.41,6.63-.34,5.24-2,11-2.88,15.4-6.51-.82-2.75-1.51-4.43-4.42-3.08s-6.24,2.2-9.29,3.48c-2.81,1.17-4.13.12-5.12-2.51s-.68-4.34,2.37-5.1a23.42,23.42,0,0,0,5.72-2.13c1.68-.93,5.27-.25,4.11-4.06s-3.6-1.49-5.54-1a32.82,32.82,0,0,0-5,1.78c-2.44,1-4.58,2.21-6-1.56s1.68-3.59,3.47-4.38c2.55-1.14,5.28-1.85,7.88-2.89,1.64-.65,3.37-1.3,2.14-3.83-.9-1.87-2.15-1.9-3.72-1.33-5.27,1.91-10.52,3.85-15.79,5.77-1.26.46-2.62,1.19-2.1,2.65C190.14,270.51,192.94,279,196.49,287.17Z" transform="translate(-117.95 -164.2)"/><path class="cls-6" d="M224.62,265.3a58.61,58.61,0,0,0,6.09.23c2.3.11,5,.1,5,3.27,0,2.7-2.29,3.75-4.59,4.35a5.94,5.94,0,0,1-6.71-2.4c-1.74-2.32-4-1.16-5.36-.07-2.44,2,.2,3.57,1.31,4.94,2,2.51,4.93,3.45,9,3.45a48.24,48.24,0,0,0,5.82-1.51c4.74-1.8,7.73-5,6.9-10.45s-4.5-7.64-9.69-7.79c-1.28,0-2.55,0-3.82-.11-2.25-.13-4.75.25-6.25-1.91a2.78,2.78,0,0,1,.49-2.63,6.15,6.15,0,0,1,7.73-.87c1.57,1,2.71,1.94,4.73,1.36,2.26-.66,3.14-1.8,1.78-3.79-3.07-4.48-7.58-4.75-12.27-3.53-4.93,1.28-9.32,3.46-9,9.6C216.11,262.79,220.06,264.59,224.62,265.3Z" transform="translate(-117.95 -164.2)"/><path class="cls-7" d="M403.42,268.19c-2.92-1.78-4.66-.47-6.69,1.24-5.84,4.91-11.78,9.69-17.56,14.65-1.24,1.07-4.37,1.89-2.27,4.28,1.35,1.56,3.37,2.37,6,.73,6.39-3.93,12.91-.3,13.29,7.37.16,3,1.85,4.49,4,4.67,2.91.25,2.23-2.73,2.48-4.48,1-7.55,1.9-15.13,2.81-22.55C406.12,271.58,406,269.73,403.42,268.19ZM398,285.33c-2.89-.15-6.13-1.28-6-3,.32-3.29,3.9-4.67,7.35-7.19Z" transform="translate(-117.95 -164.2)"/><path class="cls-6" d="M297.86,241.23c-3.69.23-2.69,3.08-2.76,5.16-.16,4.33-.07,8.67-.14,13-.07,3.85-.77,7.43-5.7,7.33-5.09-.1-6.13-3.55-6-7.89.12-4.08.09-8.17,0-12.25-.06-2.35.94-5.51-3.32-5.35s-2.79,3.49-2.89,5.67c-.19,4.33-.12,8.68,0,13,.31,9,3.47,12.14,12,12.21s11.78-3,12.3-11.95c.13-2.29,0-4.59,0-6.89h.07c0-2.29,0-4.59,0-6.89C301.43,243.86,301.91,241,297.86,241.23Z" transform="translate(-117.95 -164.2)"/><path class="cls-8" d="M362.1,283.92c3.92,1.74,8,2.12,11.66-.34,1.75-1.18,5.43-2.19,3.09-5.53-1.77-2.54-3.77-1.7-6.36-.05-5.12,3.28-10.4-.06-10.3-6.47,1.24-4.38,1.57-9.95,7.39-11.86a5.87,5.87,0,0,1,7.65,3.36c1.26,3.15,3.57,5.44,6.09,3.55,3.08-2.32.43-5.7-1.47-7.79-4.05-4.44-9.26-6.32-15.16-4.24-7.48,2.63-10.11,8.89-10.75,16.08C353.39,276.87,356.36,281.36,362.1,283.92Z" transform="translate(-117.95 -164.2)"/><path class="cls-9" d="M346.17,278.68a1.87,1.87,0,0,0,2.28-1.51c2.08-8.64,4.13-17.3,6-26,.42-2-1.49-2.25-3-2.59-2.44-.55-3.11.93-3.54,2.84-1.73,7.69-3.32,15.41-5.32,23C341.57,278.17,344.08,278,346.17,278.68Z" transform="translate(-117.95 -164.2)"/><path class="cls-10" d="M310.22,242.23c-2.73-.2-3.5,1.2-3.65,3.62q-.69,11.44-1.59,22.89c-.2,2.53.62,3.79,3.25,4s3-1.29,3.14-3.26c.4-4.82.84-9.65,1.26-14.47l-.14,0c.15-2.8.27-5.6.47-8.4C313.1,244.43,313.23,242.45,310.22,242.23Z" transform="translate(-117.95 -164.2)"/><path class="cls-11" d="M254.87,267.7c6.34,4.92,2.27-7.1,7.16-4,5.12,2,4.68-1.93,4.66-4.85-.06-5.46-1.48-10.56-8-11-6-.38-8.76,3.59-8.65,9.2C250.14,261.14,251.16,264.82,254.87,267.7Z" transform="translate(-117.95 -164.2)"/></svg>
