<svg id="Layer_1" data-name="Layer 1" xmlns="http://www.w3.org/2000/svg" viewBox="0 0 354.3 354.3"><defs><style>.cls-1{fill:#b12c2c;}.cls-2{fill:#b2312f;}.cls-3{fill:#b2302e;}.cls-4{fill:#b3332f;}.cls-5{fill:#b33330;}.cls-6{fill:#b2322f;}.cls-7{fill:#b33430;}.cls-8{fill:#b43832;}.cls-9{fill:#b43932;}.cls-10{fill:#fbf6f3;}.cls-11{fill:none;stroke:#b12c2c;stroke-miterlimit:10;stroke-width:10px;}</style></defs><path class="cls-1" d="M402.42,323.22c-7.44-2.85-7.95-6.5-6.75-12.81.93-4.83-1.79-8.66-5.8-10.69-4.17-2.11-7.18.86-9.59,4.12-1,4.19,2,8.87-1.3,13.31-5.33-4.92-.92-9.11,0-13.37,0-6.26-3.24-10.58-8.39-13.57a11.46,11.46,0,0,1-5.2-5.17c-1.34-2.85-3.1-7-7-5.38-3.38,1.42-2.67,5.7-2.38,9a21.18,21.18,0,0,0,1.36,4.32,17.74,17.74,0,0,1,6,6.4c4.88,4.42,3.1,9.65,1.81,14.81-.43,1.69-1.29,2.83-3.2,1.93-1.59-.75-2.33-2.16-1.37-3.72,2.27-3.7,2.47-7.6,1.55-11.68l-4.91-5.87h0c-7-2.26-11.86,3.74-18.06,4.51-3.1,6.69-1.26,13.59,4.6,16.1,4.33,1.86,2.85,4.76.84,6.5-4.51,3.9-7.72,8.8-11.46,13.3-1.87,2.26-4.16,2.73-6.83,2.39-3.44-.44-6.58-.08-9.06,2.79-.83,1-1.68,3-3.5,1.22a2.8,2.8,0,0,1-.24-4.12c7.15-7.73,10.88-17.12,13.5-27.11.27-1,1.86-2.75,2.4-2.6,10.05,2.84,5.1-4.9,6-8.43-1.67-.76.2-5.94-4.68-3.05-8.51,5-15.57,10.9-17.93,21-.27,1.17-1.21,1.48-2.34,1-.62-13.41-2.63-15.27-12.62-10.8,1.33-4-5.15-9.9,4-11.17.38-.05.87-1.85.72-2.74a141.51,141.51,0,0,1-2.05-25.62c-4.56,3.59-2.53,8.57-5,10.5-7.94,6.19-7.5,15-8.45,23.46-.56,5.06-1.38,10.05-4.32,14.4-.72,3.62-1.59,7.19-4.29,10.13a11.87,11.87,0,0,1,2.36-10.49c.26-3.84,2.73-8.54-3-10.37-4.07-1.31-8.56-2.56-12.42.64s-5.32,7.22-3.71,12.29c.76,2.39.32,5.16,1.08,7.54,2.3,7.21-5,9.26-7.27,14-.51,1.05-1.68.29-2.37-.6-4-5.19-10.57-8.95-8.29-17.4,1.13-4.15,1.41-8.87-3.77-11.19S234,313.47,231,315.71c-.26.19-.89-.13-1.76-.28.29-4.59-4.29-11-.13-13.43,7.94-4.65,4.38-8,.84-12.34-1.91-2.31-1.54-5.35-2.7-7.87-1.06-2.32.81-6.75-3-6.77-3.3,0-3.85,4.15-5.14,6.86s-.47,5.46.19,8.19c.52,2.14,1.72,4,.8,6.59-5.31,14.94-2.82,29.1,5.22,42.37,2.42,4,2.06,7.28.4,11.42-5.87,14.63-17.83,23.35-30.51,30.81-5.32,3.14-5.83,3.54-2.81,9.38,5.58,10.83,15.33,15.18,25,19.75,3.23,1.52,7.59-.39,8.17-5.47-2.45-2.24-4.78.69-7.29.17,0-9.65,5.82-2.28,8.79-3.1.86-.55,2.9-2,2.51-.36-2,8.39,0,18.29-8.86,24.29-2.06,1.4-3.71,3.58-3,6.55,1.19,5.25,11.73,14.54,17.47,15.14,2.91.3,6.66,1.52,7.85-2.5,1-3.36,0-7.09-3.57-8.33-4.66-1.62-3.92-4.6-1.84-6.92,8.16-9.14,16.69-17.93,26.36-28.21,0,6.64,0,10.94,0,15.23,0,4.59-.28,9.15.93,13.69,2,7.67,4.61,15.51-4.34,21a3,3,0,0,0-1,4.09c.71,1.32,2,1.29,3.32,1.24,10.8-.38,14.48-4.13,14.24-14.82-.08-4.07-.4-8.14-.73-12.2a179.37,179.37,0,0,1,.9-39.1c11.93,9.47,12.23,10.18,8.06,23.33-1.15,3.62-3.09,7-4.36,10.58-1.13,3.18-1.9,6.64,1.5,9,2,1.43,4.36,3.59,6.85,2.63,3.73-1.44,3.34-5.35,3.49-8.6.21-4.63-.13-9.4,4.17-13,2.09,4.51,2.27,8.82,2.28,13.18,0,9.51,3.27,14.18,11.82,17.42,1.45.55,2.91,1.32,4.22,0s.58-2.84,0-4.24c-2.77-6.15-3.53-12.67-4.26-19.32-.61-5.49-1.67-11.05-4.62-16.05-.93-1.57-4.81-3.8-.13-5.82,3.3-1.43,5.57-1,7.54,2.5,3.11,5.47,4.4,11.25,5.21,17.42,1.31,10,7.27,14.07,15.28,11.21.81-5.73-2.19-10.3-4.84-14.85-3.68-6.31-5.1-13.16-5.82-20.28-.31-3.1.5-5,4.08-4.5a12.57,12.57,0,0,0,7.31-1.24c4.93-2.25,7.32.05,7,5.26-.66,12.14-.82,24.31-5.81,35.73h0c-.28,6.52,1.76,12.58,3.65,18.67.6,1.92,1,4.55,3.47,4.37,3-.21,1.91-2.91,2-4.84.18-5.15,2.23-10,2.89-15,1-7.83,4.39-13.73,10.79-18.29,6.95-4.94,10.77-12.06,12.93-20.2a26.26,26.26,0,0,1,2.4-5.6c1.13-2.09,2.78-4,5.35-3.71,3.41.37,2.29,3.53,2.58,5.5,2.31,16,.35,31-9.59,44.38-1.71,2.3-3.07,5.06.1,7.37,2.69,1.95,5.47,1.2,7.71-.77a75.65,75.65,0,0,0,5.62-6.21c5.38-5.93,5.52-13.85,7.25-20.85,2.35-.24,2.66,1.27,3.33,2.21a34.89,34.89,0,0,1,6.54,21.57c-.06,2.65.81,5.43,4,5.53,2.8.08,3.34-2.5,4.08-4.78a31,31,0,0,0-.46-21.74c-2.27-5.68-4.91-11.21-7.31-16.83-1.34-3.14-1.88-6.11.44-9.32,8.35-11.57,10.41-25.29,12.58-38.87C418.54,341.64,412.71,327.15,402.42,323.22Zm-81.78-10.8c.24-.87,1.1-1.58,2-2.79.43,1,1,1.69.83,2.13-.27.87-.74,2-1.44,2.34C320.46,314.78,320.42,313.21,320.64,312.42ZM387.1,303a6.94,6.94,0,0,1,5.19,5.11c.67,2.12-1.09,3.3-3.14,3-2.79-.37-4.59-2-4.59-5A2.82,2.82,0,0,1,387.1,303Zm-14.84-4.8c2.65,2.9,2.12,5,.93,9.35C372.1,303.52,370.87,301.65,372.26,298.2Zm-7,26.88a53.67,53.67,0,0,0,5.12-9.91c1.42,4.29,1.67,8.28-.82,11.89-.9,1.3-1.56,3.7-3.88,2.13C364.27,328.21,364.43,326.43,365.28,325.08Zm-18.16-17.3c1.3-3,2.55-6.72,5.92-8.16,4,.93,5.19,3.7,5.44,6.9s-1.77,5.76-4.68,6.05C350.6,312.89,346.75,308.64,347.12,307.78Zm6.75,15.57c1.08-.5,3.27-1.08,3.39-.84,2.8,5.59,7.71,10.78,7.42,17.05-.21,4.44-3.82,8.74-8.47,11a8,8,0,0,1-2.6.42c-2.12-.31-3.93-.21-5.26-1.76C343.16,343.18,346.61,326.74,353.87,323.35ZM318.44,350c.63-.13,1.49.91,2.13,1.34-.49,2.08-1.52,3-3.16,3a1.89,1.89,0,0,1-1.4-1.22A2.85,2.85,0,0,1,318.44,350Zm-14.36-37.64c3.48,4.74,2.62,8.85.61,12.77-.64,1.26-2.32,1-3-.44C299.73,320.16,301.73,316.54,304.08,312.32ZM296.87,323c.49,0,1,1.51,1.3,2,.28,1.81-.11,3-1.64,2.87-.55-.05-1.34-1.42-1.37-2.22C295.11,324.58,295.4,323,296.87,323ZM286,324.15c1.75-6.73,3.7-13.41,5.91-21.29,4.5,9,.19,16.61-.39,24.25a1.69,1.69,0,0,1-2.83,1.18C287.38,327.28,285.43,326.19,286,324.15Zm-20.84-11.58c.58-3.87,3.7-4.56,6.79-4.81,2.34-.18,4.73.3,5.1,3.33.15,1.28-.56,3.4-1.51,3-3.21-1.48-6.24-5.8-7.77.77C265.41,314.59,265,313.5,265.12,312.57Zm8.46,10.19c-.33,2.18-.58,4.32-2.87,4.24-3.31-.13-2.83-3.16-3-5.24s1-3.79,3.11-3.42C273.14,318.75,273.48,321,273.58,322.76Zm-24.69,27.1a4.55,4.55,0,0,1,.86-4.95,1,1,0,0,1,1.71.39c.46,1.74.76,3.54-1.38,4.54h0c-.48,2-.31,4.52-3.81,4.75C246.29,352.38,246.92,350.79,248.89,349.86Zm-11.44-35.17c1.53-.55,3.34,0,3.57,1.79.65,5.19-4.81,4.15-7,8.06C232.57,318.78,233.76,316,237.45,314.69Zm2.2,10.88c1.09,4.71,1.29,8.54,5,12.06,3.15,3,.93,7.67-.94,11.3-.79,1.54-2.24,1-2.83-.32-1.88-4.3-6.07-6.81-8.42-10.36C227.44,330.65,236,329.25,239.65,325.57Zm4.64,32.26c-3.63,4.56-5.84,7.62-11,5.43C235.58,359.46,239.09,359.12,244.29,357.83Zm-17.62-25.65c-3.39-3.67-3.23-8.37-4.53-12.5h0a9.46,9.46,0,0,1,.23-9.79h0c-.3-2.93-.7-5.87,1-8.9,1.31,3.18.36,6.13.32,9a44.72,44.72,0,0,0,4.07,12.15C229.46,325.5,230.1,328.81,226.67,332.18Zm6.11,13.87c6.75,6.84,6.54,7.37-6,13.59Zm-18,53c-2.18,2.22-5.15,2.57-6.77.62-2.24-2.72-5.1-3.9-7.85-5.65-4.88-3.1-3-8.24,5.12-13.71-1.46,7.47,8.39,8,8.23,14.9C213.51,395.91,217.33,396.46,214.79,399.05Zm-1.23-14.32c-2,.78-3.57-.83-3.27-3,.6-4.17,2.42-8.06,6.4-9.67,1.39-.55,4.27,1.14,4.87,4C219.76,379.74,217.5,383.18,213.56,384.73Zm11.95,46.44c0,.86,0,2.12-1.4,2a1.85,1.85,0,0,1-1.79-2.52,10.39,10.39,0,0,1,1.94-2.7C226.1,428.78,225.56,430.11,225.51,431.17Zm10.34-8.66c-2,5.63-5.44,10.91-4.06,17.34,2.18.7,5-.56,6.8,2.34-2.57,2.27-4.73.6-6.92-.52-2.13-.14-3.38-1.33-3.11-3.41.74-5.75,1.63-11.48,2.58-17.19.36-2.12,1.52-4.34,3.9-3.65C237.78,418.22,236.44,420.88,235.85,422.51Zm2-20.38c-1.17,3.44.08,7.74-3.44,10.31-.9.66-2.46-.1-2.29-1,.79-4.18.36-8.94,5.19-12.93C237.65,400.71,238.05,401.52,237.84,402.13Zm3.41,6.07c-.8-5.47,2-9.51,4.64-13.69C246.88,399.78,248.54,405.41,241.25,408.2Zm10.44-3.82c-2-3.36-1.16-6.72-.66-10.2,1-6.89-1.9-8.8-8.92-6.18-1.37,1.9-.12,5.08-3.33,6.69-1.58-3.58.78-5.78,2-8.23A15.25,15.25,0,0,1,241,385c.9-3.82,3.84-10,.46-11-4.59-1.34-2.48,5.83-4.85,8.59s-3.89,5.8-7,10.65c-.1-6.56-4.37-10.66.57-15.18,1.89-1.74,1.06-3.81-1.39-4.72s-4-2.05-4.09-5c8,.77,16.29,3.11,22.85-4.73-1,4.72,1.75,8.85-.72,13.56-1.73,3.31,2.73,5.5,5.18,7.49C259.87,391,260,397.44,251.69,404.38Zm2.84-32.1a13.25,13.25,0,0,1-.25-3.68,131.41,131.41,0,0,1,4.47-16.69C262,359.38,259.85,366,254.53,372.28Zm11-23.07c.34-1.2,1.41-2.51.32-3.49-7.53-6.79.78-9.21,3.91-11.91,2.56-2.21,6.81-1.67,9.28,2.07,3.69,5.57,3.51,12.91-.68,15.87-3.51,2.49-7.27,4.63-10.94,6.95A9.6,9.6,0,0,1,265.58,349.21Zm6.62,93.69c-1.84-6.79-5.62-13.34-1.85-20.79A33,33,0,0,1,272.2,442.9Zm3.9-62.74c-6,1.77-3.13,6.8-3.08,10.12.14,8.81-.76,17.4-1.62,26l-2.44-.07c0-11.55-.18-23.1.09-34.64.11-4.3,4.81-2.53,7-4.17,2.77-2.21,5.17-3.89,6,1.7.45,3.13,1.82,6.12,3.06,10.08C279.93,387.57,279.08,382.75,276.1,380.16Zm10.12-41.11c1.94-.21,11.42,7.28,11,8.11-1.17,2.22-3.09,5.32-5.12,5-5.54-.86-4.39-7-6.75-10.55A1.83,1.83,0,0,1,286.22,339.05Zm12.25,37.78c-2.39-2.29-4.08-4.8-3.07-9.12C298.31,370.76,298.31,373.83,298.47,376.83Zm-8.55,37.25s0,.09,0,.13h0l-.12.09a11.75,11.75,0,0,1-1.27,7.75l-.31,4.42c.05,1.73,1.3,4.84-1.42,4.46-3.51-.49-1.71-3.69-1.22-5.91q.78-2.22,1.58-4.46c1.18-2,.52-4.72,2.64-6.26a1.1,1.1,0,0,0,0-.18l.12,0a9.16,9.16,0,0,1,2.66-7.87C294,410.38,293.69,412.88,289.92,414.08Zm17,7.25c1.12,5.66,1.91,11.39,2.92,17.53-5-1.31-6.41-4.37-6.24-8.59a52.24,52.24,0,0,0-4.2-22.27l-3.55-4.48a44.84,44.84,0,0,1-10-11.83c6.82,1.75,9.23,6,11.7,10.2a7.74,7.74,0,0,1,3.24,4.27C305.54,410.12,305.84,415.92,306.91,421.33Zm-1-30.43c-3.1-.74-2.9-3.62-3.92-5.65-1.17-1.41-3.34-3.36-1.46-4.66s2.24,1.66,3,3C304.71,385.86,307.48,387.58,305.92,390.9ZM319,401.72c-2.53-4.8-5.19-9.55-7.52-14.45-.81-1.7-1.53-4.19,1.05-5.17,2-.76,3.26,1.1,4.1,2.62C319.54,389.9,319.48,395.66,319,401.72Zm5,14.77c1.83,1.42,2.82,2.8,2.33,4.68-.09.33-1.63.75-1.85.52C323.29,420.34,323,418.71,324.05,416.49Zm-1.5-31.92c-4.6-5.51-7.8-11.29-15-5.89-1.69,1.27-2.91-1.54-3.67-3a26.08,26.08,0,0,1-2.25-19.29c2.08-8.06,1.71-15.43-6.15-20.54a1.67,1.67,0,0,1-.59-2.54c1.41-2.3,4-1.9,6.08-2.72s2.92,0,3.39,1.72c1.28,4.59,3,9.15,3.49,13.83.27,2.62.23,4.85,2.23,6.81a4,4,0,0,1,.85,4.29c-.84,2.4-6.16,2.79-2.91,7.11,2.79,3.71,5.44,7.83,10.18,8.79C324.82,374.49,324.4,378.28,322.55,384.57Zm5.17-13.08c-2.54-4.59-9.53-1.37-12.11-7.17,7.26-3.06,11.08,2.3,15.58,5.63,1.6.07,2.48,1.78,1.75,2.32A3.7,3.7,0,0,1,327.72,371.49Zm8.07,8.87c-.3,2.43-2,5-4.5,5.35-2.35.35-3.26-1.87-3.09-4.11s1.13-3.82,3.7-3.72C333.26,378.71,336.08,378,335.79,380.36Zm-13.57-22.55c4.57-8,12.29-6.69,19.53-6.58,2.49,0,2.8,2.11,3.45,4.23a35.49,35.49,0,0,1,1.13,17.26c.67,4.72,0,9.2-2.76,15.58V377.36C340.42,370.81,337.73,368.35,322.22,357.81Zm24.65,62.89h0c-.19,2.73-.19,5.51-1.64,8,0,3.5-.86,6.72-3.39,11.09-2.21-6.84,1-11.46,1.87-16.32l1.59-7.57h0c.44-6.72-1.87-13.6,1.2-20.16,4.45-6.16,1.85-14,4.91-20.76,4.12,1.59,3.9,4.41,3.23,8-1.71,9-7.09,17-6.81,26.48C348.3,413.24,348.63,417.06,346.87,420.7Zm7-18.85c-2.13-.78-.85-2.26-.38-3.66,2-6.09,3.94-12.23,6.17-19.23,2.39,2.59,4.42,4.33,2.73,6.7-2.94,4.14-4.44,8.75-5.62,13.58C356.48,400.54,356,402.61,353.9,401.85ZM359,408.4c-.44-3.92.11-6.42,3.11-7.74.28-.12,1.44.76,1.47,1.23C363.78,404.82,361.69,406.31,359,408.4Zm7.21-11.73c-1.58.18-2-1.23-1.86-2.61s.16-2.94,1.69-3c1.22,0,2.15,1.21,2.16,2.69S367.48,396.53,366.19,396.67Zm3.9-12.17c-1.81-10.25-13.6-12.18-16.66-21.16-.87-2.55-2.26-5.63,1.16-6.2,2.94-.5,7.92-3.12,9.27.88C366.75,366.51,372.29,374.44,370.09,384.5Zm9-51.57c1.9,8.7-3.64,15.54-5.21,23.32-.22,1.09-2.2,1.83-3.39,2.75-3.33-4.42-3.54-8.47-.66-13,2.06-3.23,2.57-6.79,2-10.92-.63-4.86,2.24-9.31,6.3-11.83,2.91-1.81,5.65-3.19,6.76-6.66.82-2.57,2.74-2.29,4.05-.79,2.05,2.35.26,4.88-.62,7.11s-2.26,6.2-4.66,5C375.73,324.13,378.67,330.89,379.12,332.93Zm10,81.21c-.85,4.71-1.16,9.61-2.72,14.07-1.35,3.88-3.53,7.83-9.14,9.39,2.35-8.39,9.36-14.25,9.24-22.85-.11-8.3,0-16.6,0-25.07,2.7.12,2.67,1.65,2.75,3.11C391.48,399.92,393,407,389.15,414.14Zm16.51-35.71c-.71,3.39-1.81,6.84-4.45,9.58-.58-.74-.85-1.16-1.18-1.52-2-2.18-.41-8.06-3.53-7.23-4.06,1.08-.4,5.65-.47,8.68,0,2.49.81,5,1.27,7.48h0q5.28,14,10.57,28c2.54,3.15,1.53,6.65,1.36,11.21-4-3.91-3.17-7.19-1.4-10.57-1.24,1-2.25.91-2.95-.62-3.44-7.53-9.3-14.09-9.07-23.06-1.91-9-3.86-18-12.85-23.19-1.48-.85-3.26-2.55-2.13-4.4,6.69-11,2.61-23.06,3.9-34.58.22-1.94-.82-5.71,2.5-4.77,1.62.45,6.77,2.08,4.17,6.85a39.34,39.34,0,0,0-2.82,7.07c-1.77,5.6,0,9.47,5.83,11.15,3.06.88,7.47-.25,8.67,3.56C404.74,367.3,406.85,372.75,405.66,378.43ZM407.3,357a98,98,0,0,1-12.41-3.37c-3.2-1.17-2.47-3.91-1.55-6.45,1.63-4.5,3.2-9,5.49-15.51,3.95,8.44,7.29,15.4,10.42,22.45C409.83,355.38,409.68,357.48,407.3,357Zm5-8.22c-4.17-4.06-4.64-9.07-6.89-13.12-.66-1.18-1.07-2.5.33-3.27s2.41.37,3.12,1.37C412,337.94,413,342.67,412.34,348.73Z" transform="translate(-133.62 -148.76)"/><path class="cls-2" d="M288.26,199c0,15.33,0,15.32,15.55,15.45,2.55,0,5.11.09,7.65.31a4.87,4.87,0,0,0,5-2.3c4.15-5.69,11.79-4.62,14.84,2.1,1.23,2.7,3.15,3.49,5.4,3,3.6-.72,1.08-3.28.73-4.75-1.84-7.69-4.08-15.28-5.93-23-.64-2.65-1.81-3.87-4.55-4.15-2.51-.25-3.74.89-4.78,2.86-1.89,3.61-4.51,7-5.7,10.8-2.8,9-8.95,10.66-17.32,9.71-3.6-.41-4.9-1.26-4.72-4.91.25-5.35,0-10.73.07-16.09,0-2.28-.25-3.94-3.24-3.9s-3.05,1.93-3,4.07C288.27,191.89,288.26,195.47,288.26,199Zm37.92-5.56c1.12,4.77,3.46,7.57,1.33,10.39-.57.75-4.4.48-4.81-.32C320.82,199.92,324.36,197.86,326.18,193.48Z" transform="translate(-133.62 -148.76)"/><path class="cls-3" d="M276.39,258.05c3.66-.42,7.1-2.09,10.88.47,2.71,1.83,3.88-2.68,3.59-2.84-5.87-3.16-1.55-7.84-2-11.72.24-10.05-4.91-16.56-13.44-17-10.13-.52-16.5,5.64-16.18,15.66C259.62,253.43,266,259.24,276.39,258.05Zm-2-25.61c6.5.41,7.93,5.52,8,11,0,2.91.46,6.81-4.65,4.84-4.89-3.1-.82,8.92-7.17,4-3.71-2.87-4.73-6.56-4.8-10.61C265.63,236,268.41,232.07,274.38,232.44Z" transform="translate(-133.62 -148.76)"/><path class="cls-2" d="M334,233.42c-1.27,6.5-2.14,13.09-3.21,19.64-.33,2-1.16,4.08,1.91,4.77,3.71.83,3.35-2.06,3.9-4.11,1.07-4,.47-8.37,2.93-13.09,2.69,6.36,5,11.73,7.22,17.13,1.06,2.59,3.18,3.16,5.59,3.05,2.72-.13,2.07-2.56,2.35-4.08,1.33-7.28,2.44-14.6,3.7-21.89.41-2.37.05-4-2.73-4.37-2.61-.34-2.84,1.37-3.15,3.23-.73,4.42-1.53,8.83-2.3,13.24l-1.41.19c-2-4.79-4.06-9.56-6-14.39-1.09-2.77-2.41-5.25-5.8-5.15C332.9,227.71,334.44,231.32,334,233.42Z" transform="translate(-133.62 -148.76)"/><path class="cls-4" d="M212.16,271.73c1.51,3.48,4.62.41,6.63-.34,5.24-2,11-2.88,15.41-6.51-.83-2.75-1.52-4.43-4.42-3.08s-6.25,2.21-9.3,3.48c-2.81,1.18-4.13.12-5.11-2.5s-.69-4.34,2.37-5.1a23.92,23.92,0,0,0,5.71-2.13c1.68-.93,5.27-.26,4.12-4.06s-3.61-1.49-5.55-1a32.38,32.38,0,0,0-5,1.79c-2.44,1-4.59,2.2-6-1.57s1.69-3.59,3.47-4.38c2.56-1.13,5.29-1.85,7.89-2.89,1.63-.65,3.37-1.3,2.14-3.82-.91-1.87-2.16-1.9-3.73-1.34-5.26,1.91-10.52,3.86-15.78,5.77-1.27.47-2.62,1.19-2.11,2.65C205.82,255.08,208.62,263.57,212.16,271.73Z" transform="translate(-133.62 -148.76)"/><path class="cls-5" d="M240.3,249.87a58.43,58.43,0,0,0,6.08.22c2.31.12,5,.1,5,3.27,0,2.71-2.29,3.76-4.59,4.36a6,6,0,0,1-6.72-2.4c-1.74-2.33-4-1.16-5.36-.08-2.44,2,.2,3.58,1.31,4.94,2,2.51,4.94,3.45,9,3.45a45.3,45.3,0,0,0,5.82-1.5c4.74-1.8,7.73-5,6.9-10.46s-4.49-7.64-9.69-7.79c-1.27,0-2.54,0-3.81-.1-2.25-.13-4.75.24-6.25-1.92a2.74,2.74,0,0,1,.49-2.62,6.16,6.16,0,0,1,7.73-.88c1.57,1,2.7,1.95,4.73,1.36,2.26-.65,3.14-1.79,1.78-3.78-3.08-4.49-7.59-4.76-12.28-3.54-4.93,1.28-9.32,3.47-9,9.61C231.79,247.36,235.73,249.15,240.3,249.87Z" transform="translate(-133.62 -148.76)"/><path class="cls-6" d="M419.09,252.75c-2.91-1.78-4.65-.46-6.69,1.25-5.83,4.9-11.78,9.68-17.56,14.65-1.24,1.06-4.36,1.88-2.27,4.28,1.36,1.56,3.38,2.37,6.05.72,6.39-3.93,12.9-.29,13.29,7.38.15,3,1.84,4.48,4,4.67,2.91.25,2.24-2.74,2.48-4.49,1-7.55,1.91-15.12,2.82-22.54C421.8,256.14,421.63,254.29,419.09,252.75Zm-5.45,17.15c-2.89-.16-6.14-1.28-6-3,.31-3.29,3.89-4.67,7.34-7.19C414.47,263.74,414.06,266.79,413.64,269.9Z" transform="translate(-133.62 -148.76)"/><path class="cls-5" d="M313.54,225.8c-3.69.22-2.69,3.08-2.77,5.15-.15,4.34-.06,8.68-.14,13-.06,3.85-.77,7.43-5.69,7.33-5.1-.1-6.14-3.55-6-7.89.12-4.08.09-8.17,0-12.25-.06-2.35.94-5.51-3.31-5.35s-2.8,3.49-2.9,5.67c-.19,4.33-.12,8.68,0,13,.31,9,3.48,12.14,12,12.21s11.78-3,12.3-11.94c.13-2.29,0-4.6,0-6.89h.08c0-2.3,0-4.6,0-6.89C317.11,228.43,317.59,225.55,313.54,225.8Z" transform="translate(-133.62 -148.76)"/><path class="cls-7" d="M377.77,268.48c3.92,1.75,8,2.13,11.66-.33,1.76-1.18,5.44-2.19,3.1-5.54-1.78-2.54-3.77-1.7-6.37,0-5.12,3.27-10.39-.06-10.3-6.48,1.24-4.38,1.58-9.94,7.4-11.85a5.86,5.86,0,0,1,7.64,3.35c1.27,3.15,3.58,5.45,6.1,3.55,3.08-2.32.43-5.7-1.47-7.78-4-4.45-9.26-6.32-15.17-4.25-7.47,2.63-10.1,8.89-10.74,16.08C369.06,261.43,372,265.93,377.77,268.48Z" transform="translate(-133.62 -148.76)"/><path class="cls-8" d="M361.84,263.25a1.88,1.88,0,0,0,2.28-1.51c2.08-8.65,4.13-17.3,6-26,.41-2-1.5-2.24-3-2.59-2.45-.55-3.11.93-3.54,2.85-1.74,7.68-3.32,15.41-5.32,23C357.24,262.73,359.76,262.6,361.84,263.25Z" transform="translate(-133.62 -148.76)"/><path class="cls-9" d="M325.9,226.79c-2.73-.2-3.51,1.21-3.65,3.62-.47,7.64-1,15.27-1.6,22.9-.2,2.52.63,3.78,3.26,4s3-1.3,3.13-3.26c.4-4.83.84-9.65,1.27-14.48h-.14c.15-2.8.27-5.61.46-8.41C328.78,229,328.9,227,325.9,226.79Z" transform="translate(-133.62 -148.76)"/><path class="cls-10" d="M270.54,252.26c6.35,4.92,2.28-7.1,7.17-4,5.11,2,4.68-1.93,4.65-4.84-.05-5.46-1.48-10.57-8-11-6-.37-8.75,3.6-8.64,9.21C265.81,245.7,266.83,249.39,270.54,252.26Z" transform="translate(-133.62 -148.76)"/><circle class="cls-11" cx="177.15" cy="177.15" r="172.15"/></svg>
