<svg id="Layer_1" data-name="Layer 1" xmlns="http://www.w3.org/2000/svg" viewBox="0 0 138.33 82.29"><defs><style>.cls-1{fill:#231f20;}</style></defs><path class="cls-1" d="M295.91,350.91c-21.89-.19-39.28-7.78-54.49-20.82a90.09,90.09,0,0,1-13.94-14.87c-2.95-4-3.07-6.9,0-10.83,14.54-18.72,32.87-31.55,56.87-35,18.48-2.66,35.54,1.66,51.28,11.42a93.5,93.5,0,0,1,25.57,23.42c3.11,4.14,3.18,6.95,0,11-13.33,17.22-30.13,29.28-51.75,34.08a37.09,37.09,0,0,1-4.42.75C301.49,350.46,297.92,350.74,295.91,350.91Zm-1-61.57c-14.08,0-24.13,12.35-20.81,25.51,3,11.88,16.81,18.55,28.93,13.94,1.27-.48,2.14-.72,3.27.47,2.24,2.39,5,2.48,7.09.57s2.21-4.35.28-6.88a1.93,1.93,0,0,1-.22-2.6C322.47,305.63,310.55,288.93,294.91,289.34Z" transform="translate(-225.22 -268.63)"/><path class="cls-1" d="M297.29,320c-5.51,1.17-10.58-1.2-12.91-5.89a10.11,10.11,0,0,1,2.8-12.33,12.39,12.39,0,0,1,14.64-.72,10.16,10.16,0,0,1,4.67,10.48c-.1.72-.16,1.68-.83,2-.83.35-1.21-.65-1.72-1.12-2.88-2.67-6.8-2.17-8.31,1.1C294.68,315.58,295,316.83,297.29,320Z" transform="translate(-225.22 -268.63)"/></svg>