<svg id="Layer_1" data-name="Layer 1" xmlns="http://www.w3.org/2000/svg" viewBox="0 0 323.75 323.77"><defs><style>.cls-1{fill:#fcbc1f;}</style></defs><path class="cls-1" d="M315.06,210.8c-90.86-.51-162.39,72.89-162.92,160.82a161.87,161.87,0,0,0,323.73,3C476.91,284.73,404.73,211.3,315.06,210.8ZM314.1,523c-82.53.08-151.08-67.07-150.38-151.62.68-83,68.41-149.18,150.35-148.94,82.05-.25,151.13,66.73,150.24,152C463.43,457,396,522.9,314.1,523Z" transform="translate(-152.14 -210.8)"/><path class="cls-1" d="M381.2,361.1H285.8c-13.06,0-26.12,0-39.17,0a11.55,11.55,0,0,0-11.2,14.63c1.38,5.16,6,8.52,11.67,8.52h96.07c12.7,0,25.4,0,38.1,0a11.58,11.58,0,1,0-.07-23.15Z" transform="translate(-152.14 -210.8)"/></svg>
