<svg id="Layer_1" data-name="Layer 1" xmlns="http://www.w3.org/2000/svg" viewBox="0 0 280.96 224.92"><defs><style>.cls-1{fill:#0e0e0e;}</style></defs><path class="cls-1" d="M249.16,311.33h-7.65c-5.63,0-9.76-2.62-12.76-7.22a7.52,7.52,0,0,1-.8-1.78c-1.06-3.21.67-5.23,4-4.67a25.73,25.73,0,0,0,4.54.56c3.37,0,5-1.17,5.65-4.46.92-4.31,1.43-8.69,2.58-13,10.11-37.39,33.84-61.76,70.59-73.61a94.93,94.93,0,0,1,17-3.68c3.14-.41,3.67-1,3.75-4.36.21-9.17,9.52-12.72,16.11-9a9.23,9.23,0,0,1,5,8.11c.15,4.94.51,4.7,5,5.34,41.52,6,73.9,34.2,85.47,73.47a107.22,107.22,0,0,1,3.62,17.73c.3,2.47,1.21,3.27,3.76,3.3,3.16,0,6.33.12,9.5.12.88,0,1.21.16,1.2,1.14,0,5.17-3.28,8.07-7.3,10.35-2.73,1.54-5.79,1.72-8.88,1.69-7.26-.08-14.52-.13-21.78-.11a14.15,14.15,0,0,0-8.82,3.4,30.39,30.39,0,0,0-2.91,2.64c-15.95,16.4-32.33,32.39-48.46,48.61a12.47,12.47,0,0,1-9.4,3.68c-23.48-.12-47,.08-70.46-.29-7.39-.11-14.22,1.51-20.09,6.39-2.85,2.37-5.53,2.18-8.33-.39-2.37-2.17-4.54-4.56-6.78-6.88-9.44-9.78-19.11-19.34-28.84-28.84-3.32-3.24-3.25-4.48.22-7.51C232,325,240,317.93,249.16,311.33Zm51.41,18c4.36,4.77,8.75,8.92,14.84,10.72,4,1.19,8.23,1.18,12.41,1.18,8.85,0,17.7,0,26.54.05,2.44,0,4.7-.31,6.72-2,11.77-9.74,23.75-19.2,36.6-27.5a2.93,2.93,0,0,1,.4-.19l-.13-.3h-1.56c-9.06,0-18.14.25-27.19-.1-4.8-.19-7.83,1.33-10.55,5.35-5.74,8.51-14.07,12.76-24.42,12.78q-15.9,0-31.78,0Z" transform="translate(-184.72 -188.69)"/><path class="cls-1" d="M184.76,358.52c0-.71,0-1.23.55-1.68,7.36-5.56,13.38-12.51,19.79-19.06a36.34,36.34,0,0,1,2.82-2.73c1.71-1.41,2.91-1.36,4.66.05a16.55,16.55,0,0,1,1.44,1.34q24.48,24.72,49.32,49.09c3.14,3.08,3.11,4.44-.09,7.37-6.28,5.76-12.27,11.81-18.14,18a22.5,22.5,0,0,1-1.63,1.61c-1.69,1.44-3,1.51-4.65.08-1.32-1.13-2.52-2.41-3.75-3.65q-22.46-22.37-44.92-44.7c-1.62-1.61-2.66-3.92-5.16-4.62C184.53,359.46,184.81,358.82,184.76,358.52Z" transform="translate(-184.72 -188.69)"/></svg>
