<svg id="Layer_1" data-name="Layer 1" xmlns="http://www.w3.org/2000/svg" viewBox="0 0 397.85 397.66"><defs><style>.cls-1{fill:#febc1f;}</style></defs><path class="cls-1" d="M513.35,412.51a.86.86,0,0,0,0-.32,109.8,109.8,0,0,0-1.9-13.75h0l0-.33A110.57,110.57,0,0,0,508.45,384c-.34-1.41-.69-2.81-1-4.22a87.17,87.17,0,0,0-3.17-10.2h0A108.34,108.34,0,0,0,499,355.55h0l-.11-.31a92.07,92.07,0,0,0-5.49-11.84h0a.73.73,0,0,0-.07-.24l-.88-1.68h0l-.12-.31a117.77,117.77,0,0,0-8.07-14.1h0v0a57.91,57.91,0,0,0-4.93-7.55h0a.43.43,0,0,0-.09-.22,69.34,69.34,0,0,0-4.82-6.61h0a119.55,119.55,0,0,0-9.53-11.75h0l-2-2.26h0v0a126.78,126.78,0,0,0-12-12.16h0a9.58,9.58,0,0,0-2-1.89h0a123.22,123.22,0,0,0-12.36-10.22h0a41.77,41.77,0,0,0-5.61-4.19h0a77.55,77.55,0,0,0-8.45-5.69h0l-.37-.23a138.5,138.5,0,0,0-13.77-8.08h0a.77.77,0,0,0-.29-.1,145.29,145.29,0,0,0-14.13-6.77h0a.57.57,0,0,0-.31-.07A107.42,107.42,0,0,0,379.74,244h0a48.05,48.05,0,0,0-6.91-2.25h0a.59.59,0,0,0-.27,0,42.45,42.45,0,0,0-6.91-1.94h0l-.32-.07a113,113,0,0,0-14.1-3.15h0a.55.55,0,0,0-.31,0,110.27,110.27,0,0,0-13.77-2h0a.58.58,0,0,0-.32,0,97.68,97.68,0,0,0-14.09-1h-.33a74.3,74.3,0,0,0-13.75,0h-.33a90.38,90.38,0,0,0-13.75,1h0l-.33,0a106,106,0,0,0-14.08,2,.85.85,0,0,0-.32,0c-1.18.21-2.36.38-3.53.62a143.89,143.89,0,0,0-17.84,4.54h0l-.55.09a45.6,45.6,0,0,0-5.93,1.93h0a.7.7,0,0,0-.32,0,130.7,130.7,0,0,0-14.1,5.44h0l-.32.11A110.72,110.72,0,0,0,223.1,256h0a.61.61,0,0,0-.24.07,134.38,134.38,0,0,0-14.09,8.17h0a79.54,79.54,0,0,0-8.59,5.83h0a.55.55,0,0,0-.22.1l-5.26,3.9h0a130.73,130.73,0,0,0-12.49,10.41h0l-1.31,1.19h0l-.35.35a123.36,123.36,0,0,0-12.42,12.52h0a9.26,9.26,0,0,0-1.87,2h0a.35.35,0,0,0-.1.19,125.41,125.41,0,0,0-9.72,11.87h0l-.2.3h0a52.46,52.46,0,0,0-4.09,5.63h0a.41.41,0,0,0-.08.19,72.7,72.7,0,0,0-5.51,8.29h0a122.56,122.56,0,0,0-7.91,14h0c-.2.33-.4.67-.59,1h0a.43.43,0,0,0-.06.22,102.5,102.5,0,0,0-5.91,12.82h0l0,0a121.57,121.57,0,0,0-5.44,14.42h0a.72.72,0,0,0,0,.32,75.76,75.76,0,0,0-2.92,9.52h0a24.35,24.35,0,0,0-1.05,4.2,155.29,155.29,0,0,0-4.92,28.48h0a96.29,96.29,0,0,0-.92,14.09h0a.58.58,0,0,0,0,.32,85.91,85.91,0,0,0,0,11.79,75.77,75.77,0,0,0,.47,9.76,42.62,42.62,0,0,0,.78,6.94h0a102.54,102.54,0,0,0,2,13.74.7.7,0,0,0,0,.32,130.13,130.13,0,0,0,3.24,14.06h0c.11.44.22.87.34,1.3a107.47,107.47,0,0,0,4.13,13.13h0l0,0A112.42,112.42,0,0,0,133.42,512h0a74.44,74.44,0,0,0,4.55,9.54h0a.72.72,0,0,0,.07.25,28.61,28.61,0,0,0,2.25,4.28h0a123.11,123.11,0,0,0,8.41,14.1h0l0,0a28.55,28.55,0,0,0,3.31,4.91h0a.47.47,0,0,0,.09.22,98.64,98.64,0,0,0,6.83,9.2h0a81.56,81.56,0,0,0,7.17,8.57h0l.33.42a47.35,47.35,0,0,0,4.64,5.07h0a97.18,97.18,0,0,0,9.42,9.29h0l.36.31a42.89,42.89,0,0,0,5,4.46h0a83.11,83.11,0,0,0,8.73,7h0l.36.34a109.09,109.09,0,0,0,9.87,7.05h0l3.92,2.56h0l.3.18a117,117,0,0,0,14.08,8.1h0a52,52,0,0,0,6.26,3.21h0a.44.44,0,0,0,.23.06,65.61,65.61,0,0,0,7.62,3.5h0l.31.08a103,103,0,0,0,11.69,4.64,128.76,128.76,0,0,0,16.44,4.89h0a24.82,24.82,0,0,0,4.63,1.2h0c3.24.78,6.49,1.52,9.79,2a106.41,106.41,0,0,0,14.09,2l.33,0h0a91.79,91.79,0,0,0,13.76,1l.33,0a78,78,0,0,0,13.75,0l.33,0h0a97.66,97.66,0,0,0,14.09-1H337l.16,0a108.44,108.44,0,0,0,13.77-2c3.29-.5,6.54-1.22,9.78-2a25.65,25.65,0,0,0,4.63-1.21h0l.32-.06A108.09,108.09,0,0,0,379.73,620h0a52.33,52.33,0,0,0,6.49-2.24,134.29,134.29,0,0,0,15.12-6.6h0a47.43,47.43,0,0,0,6.91-3.46h0l0-.05a111.08,111.08,0,0,0,13.7-7.93h0l4.2-2.69h0a107.71,107.71,0,0,0,10.22-7.42h0a76.14,76.14,0,0,0,8.52-6.89h0a53.07,53.07,0,0,0,5.88-5.23h0a88.22,88.22,0,0,0,8.89-8.83h0l.32-.34a42.45,42.45,0,0,0,4.84-5.28h0a86.89,86.89,0,0,0,7-8.42h0l.26-.37a100.13,100.13,0,0,0,7.09-9.56h0l3-4.54a108.16,108.16,0,0,0,8.26-14h0l0,0a33.22,33.22,0,0,0,2.82-5.3h0a.61.61,0,0,0,.07-.24h0a155.28,155.28,0,0,0,9.76-23h0l.08-.31h0a108.85,108.85,0,0,0,4.18-13.44h0a1,1,0,0,0,.05-.3,101.49,101.49,0,0,0,3.27-14.41h0A111.61,111.61,0,0,0,513,455.05h0a.65.65,0,0,0,0-.31,105.53,105.53,0,0,0,1-13.75h0v-.33a9.48,9.48,0,0,0,.21-1.28A188.34,188.34,0,0,0,513.35,412.51Zm-148,33.75H351.24l-.16,0-.16,0H337.15l-.16,0-.16,0h0c-1.9,0-3.8,0-5.7-.06-1.15-.05-1.53.43-1.5,1.53.06,2.44,0,4.89.06,7.33h0q0,13.9-.05,27.8,0,16.36.05,32.71h0a15.62,15.62,0,0,1-5,10.17h0a19.68,19.68,0,0,1-6.47,3c-3.36.7-6.47-.08-9.54-1.34h0l-2.32-1.61h0a15.21,15.21,0,0,1-4.76-7.94,34.33,34.33,0,0,1-.44-5.82v-.33h0v-14.4h0V483.21h0v-14.4h0V454.73h0c0-2.34,0-4.69.06-7,0-1.14-.46-1.54-1.56-1.5-1.69.06-3.38,0-5.07.06l-.16,0-.16,0h-14.1l-.16,0-.15,0H266.07l-.16,0-.16,0H252l-.16,0-.16,0H237.57l-.16,0-.16,0h0c-.7,0-1.41-.08-2.11,0-4.26.22-8.22-.57-11.66-3.25h0l-2.25-2.33h0a15.14,15.14,0,0,1-1.93-14l0,0h0a20.23,20.23,0,0,1,4.16-5.6h0a15.08,15.08,0,0,1,8.08-3.18c1.89-.12,3.8-.07,5.7-.1a.58.58,0,0,0,.32,0h14.09a.58.58,0,0,0,.32,0h13.77a.58.58,0,0,0,.32,0h13.77a.55.55,0,0,0,.31,0h14.1a.58.58,0,0,0,.32,0h0c1.69,0,3.38,0,5.07.06,1.1.05,1.61-.35,1.55-1.5s0-2.5-.05-3.76v-.33h0V398.11h0v-14.4h0V369.63h0v-14.4h0c0-.65.06-1.3,0-2-.11-4.09,0-8.14,2.23-11.8h0a19.88,19.88,0,0,1,5.25-4.89h0a15.22,15.22,0,0,1,13.71.05l0,0h0a21.29,21.29,0,0,1,4.91,4.51l.24.37h0a17.48,17.48,0,0,1,2.15,6.86h0c0,6.93-.05,13.85-.05,20.77q0,21.68,0,43.34c0,1.3,0,2.61-.05,3.9,0,1,.36,1.38,1.34,1.36,1.95,0,3.91,0,5.86-.06h0a.58.58,0,0,0,.32,0h13.77a.58.58,0,0,0,.32,0h14.09a.58.58,0,0,0,.32,0h28.17c.65,0,1.3.09,1.95.05,4.49-.29,8.61.65,12.12,3.61h0a22.28,22.28,0,0,1,3.56,4.89l.09.31h0a15,15,0,0,1-1.81,14l-.33.36h0l-1.52,1.62h0a15.46,15.46,0,0,1-8.88,3.57c-1.73.1-3.46.07-5.19.09l-.16,0-.16,0H379.73l-.15,0-.16,0H365.65l-.16,0Z" transform="translate(-116.52 -233.14)"/></svg>
