<svg id="Layer_1" data-name="Layer 1" xmlns="http://www.w3.org/2000/svg" viewBox="0 0 331.75 243.37"><defs><style>.cls-1{fill:#050808;}</style></defs><path class="cls-1" d="M308.36,517.81H306a2.22,2.22,0,0,0-1.58-.71,12.17,12.17,0,0,1-5.35-2.22,47,47,0,0,1-4.67-4.12,5.15,5.15,0,0,1-1.73-4.13q.11-12.64.1-25.29,0-38.22,0-76.46c0-1.17-.41-1.49-1.4-1.53-.27,0-.55-.05-.83-.07-11.71-.74-23.42-1.41-35.07-2.92-8.9-1.15-17.79-2.39-26.58-4.22-4.24-.88-8.48-1.8-12.78-2.71,0,.39-.05.71-.05,1-.06,18.33.14,36.67-.16,55a135.33,135.33,0,0,1-1.23,17.3c-.73,5.07-3.87,8.67-8.59,9.74a19,19,0,0,1-8.08-.06c-3.63-.75-6.36-3-9-5.4a4.08,4.08,0,0,1-1.37-3.19q-.1-12.33-.24-24.67-.12-13.35-.23-26.71-.13-15.15-.22-30.31a2.79,2.79,0,0,0-1.75-2.81c-4.35-2.07-8.68-4.19-12.92-6.47-7.94-4.27-15.51-9-21.9-15.5-4.75-4.8-8.26-10.31-9.65-17a8.57,8.57,0,0,0-.6-2.73v-5.51c.29,0,.22-.28.24-.46a30.45,30.45,0,0,1,4.43-12.51,53.6,53.6,0,0,1,15.24-15.54c11.16-7.89,23.5-13.38,36.39-17.75a297.48,297.48,0,0,1,44.59-11.2,249.46,249.46,0,0,1,26-3.39c9.56-.64,19.15-.75,28.73-.78,11.9,0,23.81-.1,35.71.22,7.5.2,15,.64,22.44,1.57,8.2,1,16.33,2.45,24.44,4a245.44,245.44,0,0,1,46.6,13.2c10.74,4.31,21,9.46,30.06,16.78,5.6,4.52,10.6,9.57,13.82,16.14,2.73,5.6,3.87,11.41,2.47,17.59a33.67,33.67,0,0,1-7.41,14.29c-5.21,6.25-11.71,10.91-18.64,15s-14.23,7.32-21.47,10.73a3,3,0,0,0-1.93,3.05c0,17.37.1,34.75-.19,52.12a70.6,70.6,0,0,1-1.08,13c-1.9,9.24-12,13.13-19.93,7.82-1.83-1.23-3.39-2.79-5.12-4.13a5.45,5.45,0,0,1-2.21-4.54c-.11-10.7-.26-21.4-.39-32.09q-.14-11.81-.28-23.6c0-1.24-.23-1.42-1.44-1.14-4.39,1-8.82,1.84-13.25,2.65-10.33,1.87-20.72,3.3-31.18,4.21q-11.4,1-22.78,2.05c-2,.19-2.21.48-2.2,2.48,0,4.91.08,9.82.07,14.73q0,16.67-.07,33.32c0,10.66,0,21.33-.09,32A162.5,162.5,0,0,1,320.36,507c-.79,5.72-3.68,8.83-9.29,10.11A11.92,11.92,0,0,0,308.36,517.81Z" transform="translate(-140.03 -274.45)"/></svg>