<svg id="Layer_1" data-name="Layer 1" xmlns="http://www.w3.org/2000/svg" viewBox="0 0 447 264.81"><defs><style>.cls-1{fill:#fff;}</style></defs><path class="cls-1" d="M56.2,243.4v-.9a1.7,1.7,0,0,0,.22,0q34.41,0,68.8.07a3.54,3.54,0,0,0,2.07-.71,225.61,225.61,0,0,1,23.47-13.25,260.84,260.84,0,0,1,57.72-20.24,288.37,288.37,0,0,1,39.77-6.25l7.55-.63,1.41-.18c2.78.28,5.52-.36,8.28-.42,9.89-.23,19.77-.1,29.66,0a5.38,5.38,0,0,0,.87.18,289.91,289.91,0,0,1,33.8,3.59,286.16,286.16,0,0,1,36.93,8.71,247.26,247.26,0,0,1,59.73,27.28,8,8,0,0,0,4.6,1.35q32.84-.08,65.67,0c1.5,0,3,.17,4.5.18,1.34,0,1.39.55.74,1.49-.93,1.36-1.89,2.71-2.8,4.09-7.44,11.41-13.8,23.34-17.55,36.53a4.11,4.11,0,0,0,.42,4,110.19,110.19,0,0,1,19.25,45.1,108.59,108.59,0,0,1-1.52,47.15,112.28,112.28,0,0,1-87.05,82.89,107.69,107.69,0,0,1-38.52.8,112.9,112.9,0,0,1-37-12.62,109.08,109.08,0,0,1-32.72-27.17c-1.09-1.35-1.54-1.26-2.49.17-7,10.65-14.13,21.23-21.22,31.83-1.56,2.34-1.58,2.34-3.12,0q-10.51-15.72-21-31.46c-.66-1-1.09-2.1-2.37-.48a97.25,97.25,0,0,1-11.06,11.54,110.81,110.81,0,0,1-51.8,26.56,108.26,108.26,0,0,1-32.48,2,112,112,0,0,1-86.66-53.86,109.29,109.29,0,0,1-14-36c-.68-3.48-.7-7.09-2.11-10.42V341.79c1.1,0,.78-.9.81-1.41A78.1,78.1,0,0,1,59.52,326a110.94,110.94,0,0,1,17.61-37.91A3.19,3.19,0,0,0,77.6,285c-3.73-13.1-10-25-17.4-36.31C59,246.85,58.13,244.71,56.2,243.4ZM391.89,442.83a89.19,89.19,0,1,0-89.73-83.69C305.2,407.48,345,442.85,391.89,442.83ZM257.33,353.16c0-49.17-39.69-87.4-85.78-89.09C120.3,262.19,77.73,304.19,79,355.43c1.14,47,39.94,87.3,90.12,86.85A89.21,89.21,0,0,0,257.33,353.16ZM172,240.9c27.42,1.54,51.52,11.1,71.76,29.64s32,41.7,35.91,68.92c4.13-26.81,15.46-49.74,35.36-68.13s43.68-28,71.07-29.77C359.65,229.35,316.89,217.64,259.7,221,229.43,222.78,200.05,228.9,172,240.9Z" transform="translate(-56.2 -200.8)"/><path class="cls-1" d="M391,297c29.29-.55,55,23.77,55.3,54.54a55.37,55.37,0,1,1-110.74.78C335.47,321.17,361.14,296.43,391,297Zm36,55.13c0-20.16-16.16-36-36.66-36-19.29,0-35.6,16.56-35.54,36,.06,19.83,16.48,36.23,36.19,36.14A36.18,36.18,0,0,0,427,352.1Z" transform="translate(-56.2 -200.8)"/><path class="cls-1" d="M222.11,352.08a55.39,55.39,0,1,1-53.17-55.19A55.44,55.44,0,0,1,222.11,352.08Zm-19.3,0c.07-19.61-16.35-36.43-37.11-36.05-18.86.35-35.12,16.75-35.14,36.07,0,19.83,16.63,36.37,36.41,36.17A36.24,36.24,0,0,0,202.81,352.12Z" transform="translate(-56.2 -200.8)"/><path class="cls-1" d="M391,333.75c9.59-.12,18.23,7.2,18.47,18.43.23,10.26-8.27,18.45-18.69,18.43a18.3,18.3,0,0,1-18.29-18.09C372.5,341.8,380.44,333.74,391,333.75Z" transform="translate(-56.2 -200.8)"/><path class="cls-1" d="M166.83,333.73a18.46,18.46,0,1,1,0,36.92,18.46,18.46,0,1,1,0-36.92Z" transform="translate(-56.2 -200.8)"/></svg>
